<svg width="16" height="16" viewBox="0 0 16 16" fill="none" xmlns="http://www.w3.org/2000/svg">
  <rect width="16" height="16" rx="8" fill="#212121"/>
  <rect x="3.5" y="3.5" width="8.8" height="8.8" fill="url(#paint0_linear)"/>
  <g filter="url(#filter0_d)">
    <path d="M7.4936 8.7512C7.54213 8.7512 7.57947 8.7736 7.6056 8.8184C7.63547 8.8632 7.6504 8.9248 7.6504 9.0032C7.6504 9.1488 7.61493 9.26453 7.544 9.3504C7.3648 9.56693 7.18373 9.73493 7.0008 9.8544C6.81787 9.97013 6.60133 10.028 6.3512 10.028C6.10853 10.028 5.90133 9.96267 5.7296 9.832C5.5616 9.70133 5.40107 9.47733 5.248 9.16C5.1248 8.90613 5.02773 8.71947 4.9568 8.6C4.88587 8.4768 4.81493 8.38907 4.744 8.3368C4.6768 8.28453 4.5928 8.2528 4.492 8.2416C4.47707 8.32 4.43413 8.5664 4.3632 8.9808C4.33333 9.16747 4.31467 9.28133 4.3072 9.3224C4.26987 9.55013 4.1952 9.7256 4.0832 9.8488C3.9712 9.96827 3.80133 10.028 3.5736 10.028C3.32347 10.028 3.10133 9.9552 2.9072 9.8096C2.7168 9.66027 2.56933 9.45493 2.4648 9.1936C2.36027 8.92853 2.308 8.628 2.308 8.292C2.308 7.6648 2.41627 7.12347 2.6328 6.668C2.85307 6.21253 3.1592 5.86533 3.5512 5.6264C3.94693 5.38373 4.4024 5.2624 4.9176 5.2624C5.276 5.2624 5.57653 5.31653 5.8192 5.4248C6.06187 5.53307 6.24107 5.6824 6.3568 5.8728C6.47627 6.0632 6.536 6.27787 6.536 6.5168C6.536 6.72587 6.4856 6.9312 6.3848 7.1328C6.28773 7.33067 6.14027 7.50613 5.9424 7.6592C5.74453 7.81227 5.50373 7.92613 5.22 8.0008C5.3992 8.04933 5.53733 8.12773 5.6344 8.236C5.73147 8.34427 5.82853 8.50293 5.9256 8.712C6.03013 8.936 6.1328 9.10027 6.2336 9.2048C6.33813 9.30933 6.4576 9.3616 6.592 9.3616C6.71147 9.3616 6.82533 9.3224 6.9336 9.244C7.04187 9.16187 7.17813 9.02373 7.3424 8.8296C7.3872 8.77733 7.4376 8.7512 7.4936 8.7512ZM3.7192 8.236C3.59227 8.236 3.50453 8.20613 3.456 8.1464C3.4112 8.08667 3.3888 8.01947 3.3888 7.9448C3.3888 7.8552 3.4168 7.78427 3.4728 7.732C3.53253 7.67973 3.59973 7.6536 3.6744 7.6536H3.8144C3.87413 7.28773 3.93013 6.97227 3.9824 6.7072C4.03093 6.46453 4.18773 6.3432 4.4528 6.3432C4.6656 6.3432 4.772 6.4384 4.772 6.6288C4.772 6.66987 4.77013 6.7016 4.7664 6.724L4.5984 7.6536C4.8 7.6424 4.98293 7.59387 5.1472 7.508C5.3152 7.42213 5.44773 7.30267 5.5448 7.1496C5.6456 6.99653 5.696 6.82293 5.696 6.6288C5.696 6.3936 5.61573 6.2088 5.4552 6.0744C5.29467 5.94 5.05947 5.8728 4.7496 5.8728C4.38373 5.8728 4.06267 5.96427 3.7864 6.1472C3.51387 6.3264 3.30107 6.5952 3.148 6.9536C2.99493 7.30827 2.9184 7.74133 2.9184 8.2528C2.9184 8.49173 2.94267 8.69707 2.9912 8.8688C3.03973 9.04053 3.09947 9.16933 3.1704 9.2552C3.24133 9.34107 3.30853 9.384 3.372 9.384C3.42053 9.384 3.45973 9.35973 3.4896 9.3112C3.5232 9.26267 3.54933 9.18427 3.568 9.076L3.7192 8.236ZM9.58437 8.7512C9.6329 8.7512 9.67024 8.7736 9.69637 8.8184C9.72624 8.8632 9.74117 8.9248 9.74117 9.0032C9.74117 9.15253 9.7057 9.26827 9.63477 9.3504C9.49664 9.5184 9.30064 9.67333 9.04677 9.8152C8.79664 9.95707 8.52784 10.028 8.24037 10.028C7.84837 10.028 7.5441 9.9216 7.32757 9.7088C7.11104 9.496 7.00277 9.2048 7.00277 8.8352C7.00277 8.5776 7.0569 8.33867 7.16517 8.1184C7.27344 7.8944 7.42277 7.71707 7.61317 7.5864C7.8073 7.45573 8.0257 7.3904 8.26837 7.3904C8.4849 7.3904 8.6585 7.45573 8.78917 7.5864C8.91984 7.71333 8.98517 7.88693 8.98517 8.1072C8.98517 8.3648 8.89184 8.58693 8.70517 8.7736C8.52224 8.95653 8.2105 9.10213 7.76997 9.2104C7.8633 9.38213 8.04064 9.468 8.30197 9.468C8.46997 9.468 8.66037 9.41013 8.87317 9.2944C9.0897 9.17493 9.27637 9.02 9.43317 8.8296C9.47797 8.77733 9.52837 8.7512 9.58437 8.7512ZM8.17317 7.9392C8.03504 7.9392 7.91744 8.01947 7.82037 8.18C7.72704 8.34053 7.68037 8.53467 7.68037 8.7624V8.7736C7.90064 8.72133 8.07424 8.64293 8.20117 8.5384C8.3281 8.43387 8.39157 8.31253 8.39157 8.1744C8.39157 8.10347 8.37104 8.04747 8.32997 8.0064C8.29264 7.9616 8.24037 7.9392 8.17317 7.9392ZM10.3268 10.1512C10.1327 10.1512 9.98334 10.1064 9.87881 10.0168C9.77801 9.9272 9.72761 9.8264 9.72761 9.7144C9.72761 9.61733 9.76307 9.53333 9.83401 9.4624C9.90494 9.39147 10.0095 9.356 10.1476 9.356C10.1961 9.356 10.2521 9.3616 10.3156 9.3728C10.3828 9.38027 10.4332 9.38587 10.4668 9.3896C10.4631 9.29253 10.4407 9.20107 10.3996 9.1152C10.3623 9.02933 10.3137 8.9472 10.254 8.8688C10.1943 8.78667 10.1383 8.71573 10.086 8.656C9.97027 8.87627 9.85454 9.0592 9.73881 9.2048C9.62681 9.3504 9.50361 9.48853 9.36921 9.6192C9.30201 9.6864 9.23107 9.72 9.15641 9.72C9.09667 9.72 9.04814 9.69947 9.01081 9.6584C8.97347 9.6136 8.95481 9.55947 8.95481 9.496C8.95481 9.42133 8.98094 9.35227 9.03321 9.2888L9.10601 9.1992C9.31134 8.94533 9.46627 8.73627 9.57081 8.572C9.63427 8.46373 9.70894 8.32 9.79481 8.1408C9.88067 7.95787 9.96467 7.76933 10.0468 7.5752C10.1177 7.41093 10.2652 7.3288 10.4892 7.3288C10.5937 7.3288 10.6665 7.33813 10.7076 7.3568C10.7487 7.37547 10.7692 7.40533 10.7692 7.4464C10.7692 7.4688 10.7617 7.50427 10.7468 7.5528C10.7319 7.60133 10.7113 7.64987 10.6852 7.6984C10.618 7.8328 10.5844 7.94667 10.5844 8.04C10.5844 8.096 10.6031 8.1576 10.6404 8.2248C10.6815 8.292 10.7431 8.376 10.8252 8.4768C10.9447 8.6336 11.0343 8.768 11.094 8.88C11.1575 8.98827 11.1892 9.10773 11.1892 9.2384C11.1892 9.27573 11.1855 9.328 11.178 9.3952C11.3609 9.32427 11.5756 9.13573 11.822 8.8296C11.8668 8.77733 11.9172 8.7512 11.9732 8.7512C12.0217 8.7512 12.0591 8.7736 12.0852 8.8184C12.1151 8.8632 12.13 8.9248 12.13 9.0032C12.13 9.14507 12.0945 9.2608 12.0236 9.3504C11.8369 9.58187 11.6577 9.74053 11.486 9.8264C11.318 9.90853 11.1089 9.95333 10.8588 9.9608C10.7095 10.0877 10.5321 10.1512 10.3268 10.1512ZM13.8927 8.292C13.8927 8.58693 13.8236 8.86693 13.6854 9.132C13.5511 9.39333 13.37 9.60613 13.1422 9.7704C12.9182 9.93467 12.6774 10.0205 12.4199 10.028C12.3713 10.7485 12.2612 11.3496 12.0895 11.8312C11.9177 12.3165 11.6657 12.5592 11.3334 12.5592C11.1318 12.5592 10.9825 12.4864 10.8854 12.3408C10.7884 12.1952 10.7398 11.9936 10.7398 11.736C10.7398 11.3701 10.8238 10.9427 10.9919 10.4536C11.1598 9.96827 11.4193 9.43253 11.7703 8.8464C11.7703 8.30133 11.7665 7.9224 11.759 7.7096C11.7553 7.60133 11.7983 7.51547 11.8879 7.452C11.9775 7.38853 12.0895 7.3568 12.2239 7.3568C12.3023 7.3568 12.3583 7.3736 12.3919 7.4072C12.4292 7.43707 12.4497 7.49867 12.4535 7.592C12.4535 7.68533 12.4553 7.7544 12.4591 7.7992C12.5785 7.64987 12.6961 7.54347 12.8119 7.48C12.9276 7.4128 13.0508 7.3792 13.1814 7.3792C13.3905 7.3792 13.5604 7.4632 13.6911 7.6312C13.8255 7.7992 13.8927 8.01947 13.8927 8.292ZM12.4479 9.4904C12.5823 9.46053 12.7055 9.38773 12.8174 9.272C12.9332 9.15253 13.0247 9.00693 13.0919 8.8352C13.1591 8.65973 13.1927 8.4768 13.1927 8.2864C13.1927 8.1744 13.1703 8.0904 13.1255 8.0344C13.0807 7.97467 13.0209 7.9448 12.9463 7.9448C12.8119 7.9448 12.6495 8.08667 12.4591 8.3704C12.4553 8.53467 12.4535 8.77547 12.4535 9.0928C12.4535 9.26453 12.4516 9.39707 12.4479 9.4904ZM11.3782 12.0104C11.4791 12.0104 11.5631 11.7901 11.6303 11.3496C11.6975 10.9128 11.7404 10.3677 11.759 9.7144C11.5985 10.0877 11.4716 10.4443 11.3782 10.784C11.2849 11.1237 11.2382 11.4093 11.2382 11.6408C11.2382 11.7603 11.2532 11.8517 11.283 11.9152C11.3092 11.9787 11.3409 12.0104 11.3782 12.0104Z" fill="url(#paint1_linear)"/>
  </g>
  <defs>
    <filter id="filter0_d" x="2.308" y="5.2624" width="11.7127" height="7.4568" filterUnits="userSpaceOnUse" color-interpolation-filters="sRGB">
      <feFlood flood-opacity="0" result="BackgroundImageFix"/>
      <feColorMatrix in="SourceAlpha" type="matrix" values="0 0 0 0 0 0 0 0 0 0 0 0 0 0 0 0 0 0 127 0"/>
      <feOffset dx="0.128" dy="0.16"/>
      <feColorMatrix type="matrix" values="0 0 0 0 0.764706 0 0 0 0 0.0784314 0 0 0 0 0.196078 0 0 0 1 0"/>
      <feBlend mode="normal" in2="BackgroundImageFix" result="effect1_dropShadow"/>
      <feBlend mode="normal" in="SourceGraphic" in2="effect1_dropShadow" result="shape"/>
    </filter>
    <linearGradient id="paint0_linear" x1="15.2333" y1="0.566667" x2="0.566667" y2="15.2333" gradientUnits="userSpaceOnUse">
      <stop stop-color="#C31432"/>
      <stop offset="1" stop-color="#240B36"/>
    </linearGradient>
    <linearGradient id="paint1_linear" x1="14" y1="3" x2="1.85468" y2="12.8203" gradientUnits="userSpaceOnUse">
      <stop stop-color="#EAEAEA"/>
      <stop offset="1" stop-color="#FAFAFA"/>
    </linearGradient>
  </defs>
</svg>